<mxfile host="app.diagrams.net" agent="Mozilla/5.0 (Windows NT 10.0; Win64; x64) AppleWebKit/537.36 (KHTML, like Gecko) Chrome/128.0.0.0 Safari/537.36" version="24.7.14">
  <diagram name="Page-1" id="U-1FmgXQpQuUe82dSCoP">
    <mxGraphModel dx="1434" dy="738" grid="0" gridSize="10" guides="1" tooltips="1" connect="1" arrows="1" fold="1" page="1" pageScale="1" pageWidth="850" pageHeight="1100" math="0" shadow="0">
      <root>
        <mxCell id="0" />
        <mxCell id="1" parent="0" />
        <mxCell id="L4RPeNUzElQZIVAgcdMN-2" value="&lt;font face=&quot;source code pro&quot;&gt;BASELINE_NUMBER == userNumber ?&lt;/font&gt;" style="rhombus;whiteSpace=wrap;html=1;" parent="1" vertex="1">
          <mxGeometry x="270" y="360" width="200" height="80" as="geometry" />
        </mxCell>
        <mxCell id="L4RPeNUzElQZIVAgcdMN-14" value="&lt;font face=&quot;source code pro&quot;&gt;prompt user&lt;/font&gt;&lt;div&gt;&lt;font face=&quot;source code pro&quot;&gt;to enter an&lt;/font&gt;&lt;/div&gt;&lt;div&gt;&lt;font face=&quot;source code pro&quot;&gt;integer&lt;/font&gt;&lt;/div&gt;" style="shape=parallelogram;perimeter=parallelogramPerimeter;whiteSpace=wrap;html=1;fixedSize=1;" parent="1" vertex="1">
          <mxGeometry x="310" y="240" width="120" height="50" as="geometry" />
        </mxCell>
        <mxCell id="L4RPeNUzElQZIVAgcdMN-15" value="&lt;font face=&quot;source code pro&quot;&gt;read&lt;/font&gt;&lt;div&gt;&lt;font face=&quot;source code pro&quot;&gt;userNumber&lt;/font&gt;&lt;/div&gt;" style="shape=parallelogram;perimeter=parallelogramPerimeter;whiteSpace=wrap;html=1;fixedSize=1;" parent="1" vertex="1">
          <mxGeometry x="300" y="310" width="140" height="30" as="geometry" />
        </mxCell>
        <mxCell id="L4RPeNUzElQZIVAgcdMN-17" value="define constant int&lt;div&gt;BASELINE_NUMBER&lt;/div&gt;" style="rounded=0;whiteSpace=wrap;html=1;fontFamily=source code pro;fontSource=https%3A%2F%2Ffonts.googleapis.com%2Fcss%3Ffamily%3Dsource%2Bcode%2Bpro;" parent="1" vertex="1">
          <mxGeometry x="300" y="120" width="140" height="40" as="geometry" />
        </mxCell>
        <mxCell id="L4RPeNUzElQZIVAgcdMN-18" value="assign value 30 to&lt;div&gt;BASELINE_NUMBER&lt;/div&gt;" style="rounded=0;whiteSpace=wrap;html=1;fontFamily=source code pro;fontSource=https%3A%2F%2Ffonts.googleapis.com%2Fcss%3Ffamily%3Dsource%2Bcode%2Bpro;" parent="1" vertex="1">
          <mxGeometry x="300" y="180" width="140" height="40" as="geometry" />
        </mxCell>
        <mxCell id="L4RPeNUzElQZIVAgcdMN-21" value="&lt;font face=&quot;source code pro&quot;&gt;BASELINE_NUMBER != userNumber ?&lt;/font&gt;" style="rhombus;whiteSpace=wrap;html=1;" parent="1" vertex="1">
          <mxGeometry x="270" y="490" width="200" height="80" as="geometry" />
        </mxCell>
        <mxCell id="L4RPeNUzElQZIVAgcdMN-25" value="" style="endArrow=none;html=1;rounded=0;" parent="1" edge="1">
          <mxGeometry width="50" height="50" relative="1" as="geometry">
            <mxPoint x="230" y="400.09" as="sourcePoint" />
            <mxPoint x="270" y="399.91999999999996" as="targetPoint" />
          </mxGeometry>
        </mxCell>
        <mxCell id="nQou5ZbD1YTxi1HqlbR6-1" value="&lt;font face=&quot;source code pro&quot;&gt;true&lt;/font&gt;" style="edgeLabel;html=1;align=center;verticalAlign=middle;resizable=0;points=[];" vertex="1" connectable="0" parent="L4RPeNUzElQZIVAgcdMN-25">
          <mxGeometry x="0.0664" y="-1" relative="1" as="geometry">
            <mxPoint x="1" y="-1" as="offset" />
          </mxGeometry>
        </mxCell>
        <mxCell id="L4RPeNUzElQZIVAgcdMN-27" value="" style="endArrow=classic;html=1;rounded=0;" parent="1" edge="1">
          <mxGeometry width="50" height="50" relative="1" as="geometry">
            <mxPoint x="230" y="400" as="sourcePoint" />
            <mxPoint x="230" y="420" as="targetPoint" />
          </mxGeometry>
        </mxCell>
        <mxCell id="L4RPeNUzElQZIVAgcdMN-32" value="&lt;font face=&quot;source code pro&quot;&gt;display&lt;/font&gt;&lt;div&gt;&lt;font face=&quot;source code pro&quot;&gt;&quot;Equal Numbers&quot;&lt;/font&gt;&lt;/div&gt;" style="shape=parallelogram;perimeter=parallelogramPerimeter;whiteSpace=wrap;html=1;fixedSize=1;" parent="1" vertex="1">
          <mxGeometry x="160" y="420" width="140" height="30" as="geometry" />
        </mxCell>
        <mxCell id="L4RPeNUzElQZIVAgcdMN-35" value="" style="endArrow=classic;html=1;rounded=0;entryX=0.5;entryY=0;entryDx=0;entryDy=0;" parent="1" edge="1">
          <mxGeometry width="50" height="50" relative="1" as="geometry">
            <mxPoint x="369.86" y="340" as="sourcePoint" />
            <mxPoint x="369.86" y="360" as="targetPoint" />
          </mxGeometry>
        </mxCell>
        <mxCell id="L4RPeNUzElQZIVAgcdMN-36" value="" style="endArrow=classic;html=1;rounded=0;entryX=0.5;entryY=0;entryDx=0;entryDy=0;" parent="1" edge="1">
          <mxGeometry width="50" height="50" relative="1" as="geometry">
            <mxPoint x="369.86" y="290" as="sourcePoint" />
            <mxPoint x="369.86" y="310" as="targetPoint" />
          </mxGeometry>
        </mxCell>
        <mxCell id="L4RPeNUzElQZIVAgcdMN-37" value="" style="endArrow=classic;html=1;rounded=0;entryX=0.5;entryY=0;entryDx=0;entryDy=0;" parent="1" edge="1">
          <mxGeometry width="50" height="50" relative="1" as="geometry">
            <mxPoint x="369.86" y="220" as="sourcePoint" />
            <mxPoint x="369.86" y="240" as="targetPoint" />
          </mxGeometry>
        </mxCell>
        <mxCell id="L4RPeNUzElQZIVAgcdMN-38" value="" style="endArrow=classic;html=1;rounded=0;entryX=0.5;entryY=0;entryDx=0;entryDy=0;" parent="1" edge="1">
          <mxGeometry width="50" height="50" relative="1" as="geometry">
            <mxPoint x="369.86" y="160" as="sourcePoint" />
            <mxPoint x="369.86" y="180" as="targetPoint" />
          </mxGeometry>
        </mxCell>
        <mxCell id="L4RPeNUzElQZIVAgcdMN-45" value="&lt;font face=&quot;source code pro&quot;&gt;start&lt;/font&gt;" style="rounded=1;whiteSpace=wrap;html=1;" parent="1" vertex="1">
          <mxGeometry x="345" y="80" width="50" height="20" as="geometry" />
        </mxCell>
        <mxCell id="L4RPeNUzElQZIVAgcdMN-46" value="" style="endArrow=classic;html=1;rounded=0;entryX=0.5;entryY=0;entryDx=0;entryDy=0;" parent="1" edge="1">
          <mxGeometry width="50" height="50" relative="1" as="geometry">
            <mxPoint x="369.83000000000004" y="100" as="sourcePoint" />
            <mxPoint x="369.83000000000004" y="120" as="targetPoint" />
          </mxGeometry>
        </mxCell>
        <mxCell id="L4RPeNUzElQZIVAgcdMN-47" value="&lt;font face=&quot;source code pro&quot;&gt;end&lt;/font&gt;" style="rounded=1;whiteSpace=wrap;html=1;" parent="1" vertex="1">
          <mxGeometry x="350" y="620" width="40" height="20" as="geometry" />
        </mxCell>
        <mxCell id="L4RPeNUzElQZIVAgcdMN-54" value="" style="endArrow=classic;html=1;rounded=0;" parent="1" edge="1">
          <mxGeometry width="50" height="50" relative="1" as="geometry">
            <mxPoint x="369.83000000000004" y="440" as="sourcePoint" />
            <mxPoint x="370" y="490" as="targetPoint" />
          </mxGeometry>
        </mxCell>
        <mxCell id="nQou5ZbD1YTxi1HqlbR6-2" value="&lt;font data-font-src=&quot;https://fonts.googleapis.com/css?family=source+code+pro&quot; face=&quot;source code pro&quot;&gt;false&lt;/font&gt;" style="edgeLabel;html=1;align=center;verticalAlign=middle;resizable=0;points=[];" vertex="1" connectable="0" parent="L4RPeNUzElQZIVAgcdMN-54">
          <mxGeometry x="-0.4934" relative="1" as="geometry">
            <mxPoint y="-3" as="offset" />
          </mxGeometry>
        </mxCell>
        <mxCell id="L4RPeNUzElQZIVAgcdMN-55" value="" style="endArrow=none;html=1;rounded=0;" parent="1" edge="1">
          <mxGeometry width="50" height="50" relative="1" as="geometry">
            <mxPoint x="229.85999999999999" y="470" as="sourcePoint" />
            <mxPoint x="230.03" y="450" as="targetPoint" />
          </mxGeometry>
        </mxCell>
        <mxCell id="L4RPeNUzElQZIVAgcdMN-57" value="" style="endArrow=classic;html=1;rounded=0;" parent="1" edge="1">
          <mxGeometry width="50" height="50" relative="1" as="geometry">
            <mxPoint x="230" y="470" as="sourcePoint" />
            <mxPoint x="370" y="470" as="targetPoint" />
          </mxGeometry>
        </mxCell>
        <mxCell id="L4RPeNUzElQZIVAgcdMN-60" value="" style="endArrow=none;html=1;rounded=0;" parent="1" edge="1">
          <mxGeometry width="50" height="50" relative="1" as="geometry">
            <mxPoint x="230" y="530.17" as="sourcePoint" />
            <mxPoint x="270" y="530" as="targetPoint" />
          </mxGeometry>
        </mxCell>
        <mxCell id="L4RPeNUzElQZIVAgcdMN-61" value="" style="endArrow=classic;html=1;rounded=0;" parent="1" edge="1">
          <mxGeometry width="50" height="50" relative="1" as="geometry">
            <mxPoint x="230" y="530.08" as="sourcePoint" />
            <mxPoint x="230" y="550.08" as="targetPoint" />
          </mxGeometry>
        </mxCell>
        <mxCell id="L4RPeNUzElQZIVAgcdMN-62" value="&lt;font face=&quot;source code pro&quot;&gt;display&lt;/font&gt;&lt;div&gt;&lt;font face=&quot;source code pro&quot;&gt;&quot;Unequal&quot;&lt;/font&gt;&lt;/div&gt;" style="shape=parallelogram;perimeter=parallelogramPerimeter;whiteSpace=wrap;html=1;fixedSize=1;" parent="1" vertex="1">
          <mxGeometry x="160" y="550.08" width="140" height="29.92" as="geometry" />
        </mxCell>
        <mxCell id="L4RPeNUzElQZIVAgcdMN-63" value="" style="endArrow=none;html=1;rounded=0;" parent="1" edge="1">
          <mxGeometry width="50" height="50" relative="1" as="geometry">
            <mxPoint x="229.85999999999999" y="600" as="sourcePoint" />
            <mxPoint x="229.85999999999999" y="580" as="targetPoint" />
          </mxGeometry>
        </mxCell>
        <mxCell id="L4RPeNUzElQZIVAgcdMN-64" value="" style="endArrow=classic;html=1;rounded=0;" parent="1" edge="1">
          <mxGeometry width="50" height="50" relative="1" as="geometry">
            <mxPoint x="230" y="600" as="sourcePoint" />
            <mxPoint x="370" y="600" as="targetPoint" />
          </mxGeometry>
        </mxCell>
        <mxCell id="L4RPeNUzElQZIVAgcdMN-65" value="" style="endArrow=classic;html=1;rounded=0;" parent="1" edge="1">
          <mxGeometry width="50" height="50" relative="1" as="geometry">
            <mxPoint x="369.71000000000004" y="570" as="sourcePoint" />
            <mxPoint x="370" y="620" as="targetPoint" />
          </mxGeometry>
        </mxCell>
        <mxCell id="nQou5ZbD1YTxi1HqlbR6-3" value="&lt;font face=&quot;source code pro&quot;&gt;true&lt;/font&gt;" style="edgeLabel;html=1;align=center;verticalAlign=middle;resizable=0;points=[];" vertex="1" connectable="0" parent="1">
          <mxGeometry x="250.99739063089444" y="529.9993251210279" as="geometry" />
        </mxCell>
        <mxCell id="nQou5ZbD1YTxi1HqlbR6-4" value="&lt;font data-font-src=&quot;https://fonts.googleapis.com/css?family=source+code+pro&quot; face=&quot;source code pro&quot;&gt;false&lt;/font&gt;" style="edgeLabel;html=1;align=center;verticalAlign=middle;resizable=0;points=[];" vertex="1" connectable="0" parent="1">
          <mxGeometry x="370.00306641774364" y="579.9965934539682" as="geometry" />
        </mxCell>
      </root>
    </mxGraphModel>
  </diagram>
</mxfile>
